<svg version="1.1" id="Capa_1" xmlns="http://www.w3.org/2000/svg" x="0" y="0" viewBox="0 0 512.035 512.035" xml:space="preserve"><path d="M488.502 256.035l22.464-58.592c2.464-6.464.544-13.792-4.864-18.176l-48.704-39.488-9.856-61.984c-1.088-6.848-6.464-12.192-13.312-13.28l-61.984-9.856L332.79 5.923c-4.352-5.408-11.84-7.328-18.144-4.864l-58.624 22.496L197.43 1.091c-6.496-2.496-13.76-.512-18.144 4.864l-39.488 48.736-61.984 9.856a16.033 16.033 0 00-13.28 13.28l-9.856 61.984-48.736 39.488c-5.376 4.352-7.328 11.68-4.864 18.144l22.464 58.592-22.464 58.592c-2.496 6.464-.512 13.792 4.864 18.144l48.736 39.456 9.856 61.984c1.088 6.848 6.432 12.224 13.28 13.312l61.984 9.856 39.488 48.704a15.923 15.923 0 0018.176 4.864l58.56-22.432 58.592 22.464a16.066 16.066 0 005.728 1.056c4.704 0 9.344-2.08 12.448-5.952l39.456-48.704 61.984-9.856a16.03 16.03 0 0013.312-13.312l9.856-61.984 48.704-39.456c5.408-4.384 7.328-11.68 4.864-18.144l-22.464-58.592z" fill="#2196f3"/><path d="M352.022 208.035h-40c-13.248 0-24-10.752-24-24v-32c0-22.048-17.952-40-40-40-13.248 0-24 10.752-24 24v22.272a56.02 56.02 0 01-7.968 28.8l-5.568 9.28c-4.32 7.168-12.192 11.648-20.576 11.648h-5.888c-4.416 0-8 3.584-8 8v104a7.976 7.976 0 003.872 6.848l30.496 18.304c7.456 4.48 16 6.848 24.704 6.848h98.976c8.416 0 16.672-3.424 22.624-9.376l17.952-17.952c5.952-5.952 9.376-14.176 9.376-22.624v-62.048c0-17.664-14.368-32-32-32z" fill="#fafafa"/><path d="M184.022 208.035h-48c-4.416 0-8 3.584-8 8v128c0 4.416 3.584 8 8 8h48c4.416 0 8-3.584 8-8v-128c0-4.416-3.584-8-8-8z" fill="#455a64"/></svg>