<svg height="568" viewBox="0 -42 426.667 426" width="568" xmlns="http://www.w3.org/2000/svg"><path d="M373.332.332h-64C279.914.332 256 24.27 256 53.668v64C256 147.062 279.914 171 309.332 171h64c3.648 0 7.211-.383 10.668-1.09v43.758C384 260.727 345.727 299 298.668 299h-21.336C265.535 299 256 308.559 256 320.332c0 11.777 9.535 21.336 21.332 21.336h21.336c70.59 0 128-57.41 128-128v-160c0-29.398-23.914-53.336-53.336-53.336zm-256 0h-64C23.914.332 0 24.27 0 53.668v64C0 147.062 23.914 171 53.332 171h64c3.648 0 7.211-.383 10.668-1.09v43.758C128 260.727 89.727 299 42.668 299H21.332C9.535 299 0 308.559 0 320.332c0 11.777 9.535 21.336 21.332 21.336h21.336c70.59 0 128-57.41 128-128v-160c0-29.398-23.914-53.336-53.336-53.336zm0 0" fill="#b6b5b2"/></svg>