<?xml version="1.0" standalone="no"?>
<!DOCTYPE svg PUBLIC "-//W3C//DTD SVG 20010904//EN"
 "http://www.w3.org/TR/2001/REC-SVG-20010904/DTD/svg10.dtd">
<svg version="1.0" xmlns="http://www.w3.org/2000/svg"
 width="200.000000pt" height="200.000000pt" viewBox="0 0 200.000000 200.000000"
 preserveAspectRatio="xMidYMid meet">
<metadata>
Created by potrace 1.11, written by Peter Selinger 2001-2013
</metadata>
<g transform="translate(0.000000,200.000000) scale(0.100000,-0.100000)"
fill="#000000" stroke="none">
<path d="M1090 1610 c0 -3 -18 -6 -40 -6 -22 1 -41 -2 -43 -6 -1 -4 -20 -9
-42 -12 -22 -3 -60 -10 -85 -16 -25 -6 -57 -12 -72 -13 -16 -1 -28 -4 -28 -7
0 -4 -10 -6 -22 -7 -20 0 -93 -8 -169 -17 -15 -2 -32 -6 -38 -10 -6 -4 -11 -1
-11 6 0 8 -3 9 -8 3 -5 -9 -67 -32 -102 -40 -30 -6 -85 -48 -126 -97 -21 -25
-48 -88 -37 -88 3 0 1 -6 -5 -12 -12 -16 -13 -66 -1 -74 5 -3 9 -14 9 -25 0
-10 5 -19 12 -19 6 0 8 -3 5 -7 -4 -3 4 -21 18 -39 21 -28 25 -44 27 -111 1
-43 6 -81 12 -85 8 -6 8 -8 0 -8 -12 0 -12 -49 0 -68 4 -7 2 -12 -6 -12 -8 0
-9 -3 -2 -8 11 -7 15 -182 4 -182 -3 0 -6 -17 -5 -37 0 -31 5 -40 28 -51 15
-7 36 -14 47 -15 11 -1 20 -6 20 -11 0 -5 3 -7 6 -3 4 3 19 0 35 -8 15 -8 37
-16 48 -18 11 -2 24 -6 27 -10 4 -4 15 -7 24 -7 10 0 23 -6 30 -14 6 -8 17
-13 25 -10 7 3 16 1 20 -5 3 -6 15 -11 26 -11 10 0 19 -4 19 -9 0 -6 9 -8 20
-6 11 2 20 0 20 -4 0 -8 46 -24 53 -19 2 2 11 -3 19 -9 8 -7 27 -14 42 -15 14
-1 26 -7 26 -12 0 -5 8 -2 18 7 10 10 24 17 30 17 7 0 12 5 12 10 0 6 7 10 15
10 8 0 15 4 15 10 0 5 6 7 13 4 7 -2 24 4 37 16 13 11 29 20 36 20 7 0 20 7
28 16 9 8 16 13 16 10 0 -4 33 11 74 33 41 22 77 37 80 33 3 -3 6 -1 6 4 0 5
33 23 74 39 41 16 73 32 71 35 -2 3 5 7 16 8 43 4 49 6 49 14 0 4 8 8 18 8 10
0 22 4 28 10 5 5 18 11 29 13 11 2 29 8 40 12 11 4 35 14 53 21 17 7 32 19 33
26 0 7 3 36 5 63 3 28 6 68 7 90 2 22 5 45 8 50 3 6 5 25 4 43 0 17 2 32 5 32
3 0 6 28 8 63 4 106 7 122 22 137 18 17 54 72 55 82 0 3 3 10 8 14 4 4 7 31 7
61 0 50 -13 89 -35 105 -5 4 -6 8 -2 8 4 0 2 6 -5 14 -7 8 -16 12 -19 10 -4
-2 -10 3 -13 12 -3 8 -11 12 -16 9 -6 -4 -16 -3 -23 2 -7 5 -49 8 -94 8 -46 0
-83 2 -83 5 0 3 -11 7 -25 8 -14 1 -39 9 -55 17 -17 9 -30 13 -30 10 0 -3 -12
3 -27 12 -21 14 -25 15 -18 3 7 -12 6 -13 -6 -3 -16 13 -249 16 -249 3z"/>
</g>
</svg>
